<?xml version="1.0" encoding="UTF-8"?><svg id="Lag_1" xmlns="http://www.w3.org/2000/svg" width="254.64" height="526.01" viewBox="0 0 254.64 526.01"><defs><style>.cls-1{fill:#cbcbcb;}.cls-1,.cls-2,.cls-3,.cls-4,.cls-5,.cls-6,.cls-7,.cls-8,.cls-9,.cls-10,.cls-11,.cls-12{stroke-miterlimit:10;stroke-width:2px;}.cls-1,.cls-11{stroke:gray;}.cls-2{fill:#4d4d4d;stroke:#1a1a1a;}.cls-3{fill:#fff;}.cls-3,.cls-5{stroke:#000;}.cls-4{fill:#dabcff;}.cls-4,.cls-6,.cls-7,.cls-8,.cls-12{stroke:#e1d2ff;}.cls-5{fill:#000;}.cls-6{fill:#f3d6c3;}.cls-7{fill:#f2ffc6;}.cls-8{fill:#ffdba8;}.cls-9{stroke:#c8c800;}.cls-9,.cls-11{fill:none;}.cls-10{fill:#f8ffcc;stroke:#a70000;}.cls-12{fill:#fae7ff;}</style></defs><path class="cls-6" d="M240.17,277.33l-.71,1.35-1.24,1.73-2.21,2.08-2.09,1.03-1.89.12c-.42.46-.52,1.04-.25,1.44.24.36,1.56.2,2.35-.03,1.96-.58,3.29-1.54,3.59-1.76,1.42-1.05,2.21-1.69,2.77-2.42.56-.73,1.3-1.72,1.87-2.6,1.99-3.08,3.09-4.45,3.88-6.13l.22-.52c.47-1.01-.29-4.04-.39-6.45-.07-1.65.54-.39-1.09-5.62-1.39-4.46-3.21-6.21-3.75-7.83-.46-1.38-1.23-3.75-1.32-6.83-.1-3.37.66-5.8,2.16-10.56.93-2.97,1.86-5.23,2.37-6.41.41-.96.11-.44,1.67-6.57,1.51-5.94,4.13-9.14,4.35-13.99.37-8.19-3.05-10.25-2.21-11.33l-14.5,1.24c-.08,1.99,1.29,7.32.93,10.73-.45,4.17-.99,7.11-1.79,11.45-2.34,12.66-3.51,14.5-3.55,18.12,0,.56,0,1.89-.58,3.46-.54,1.46-1.09,1.74-2.45,3.79-1.44,2.17-2.16,3.26-2.5,4.88-.07.35-.05.37-.21,4.35-.08,2-.12,3.01-.16,3.26-.39,2.49-1.18,2.67-1.47,4.93-.04.32-.02,1.45.03,3.71.05,2.47.1,2.76.03,3.71-.07.8-.12.76-.58,3.46-.46,2.69-.53,3.45-.21,4.35.16.46.46,1.28,1.16,1.59,1.1.48,2.58-.59,3.37-1.56.31-.38,1.08-1.43,1.53-6.02.32-3.36.05-4.23.87-5.18.88-1.02,2.35-1.34,3.56-1.12,1.85.35,2.74,1.92,2.98,2.34.91,1.6.73,3.24.63,3.96-.51,4-4.23,6.94-5.9,7.01-.12,0-.56,0-.99.3-.56.38-1.04,1.22-.79,1.82.19.47.57.33,1.09.46.11.03.77.43,1.4.34.02,0,.11-.03.23-.07.46-.15,1.47-.51,1.71-.6l.54-.39,1.07-.78,1.07-.78,1.16-1.26.71-1.35.71-1.35"/><path class="cls-8" d="M241.31,276.91c-.57.88-1.31,1.88-1.87,2.6-.56.73-1.35,1.37-2.77,2.42-.3.22-1.64,1.19-3.59,1.76-.79.23-2.11.39-2.35.03-.26-.4-.16-.97.25-1.44l1.89-.12,2.09-1.03,2.21-2.08,1.24-1.73.71-1.35"/><path class="cls-8" d="M239.64,275.81c-.57.88-1.31,1.88-1.87,2.6-.56.73-1.35,1.37-2.77,2.42-.3.22-1.64,1.19-3.59,1.76-.79.23-2.11.39-2.35.03-.26-.4-.16-.97.25-1.44l1.89-.12,2.09-1.03,2.21-2.08,1.24-1.73.71-1.35"/><path class="cls-6" d="M7.77,298.77l.22,2.01.77,2.78,1.96,3.74,2.4,2.4,2.66,1.19c.33.79.13,1.54-.48,1.87-.56.3-2.36-.62-3.37-1.34-2.48-1.78-3.84-3.69-4.13-4.12-1.43-2.06-2.18-3.26-2.56-4.46-.37-1.18-.85-2.79-1.15-4.17-1.05-4.82-1.82-7.08-1.96-9.55v-.75c-.09-1.49,2.81-4.71,4.38-7.56,1.08-1.96-.54-.77,4.91-6.17,4.65-4.61,8.31-5.71,10.05-7.37,1.48-1.41,3.99-3.84,5.95-7.5,2.14-4.01,2.48-7.35,3.15-13.93.42-4.1.41-7.34.38-9.04-.03-1.38.1-.59,1.49-8.84,1.35-8-.54-13.31,2.02-19.29,4.32-10.08,10.48-10.67,9.9-12.44l20.18,9.52c-1.07,2.44-6.2,8.11-7.7,12.43-1.82,5.28-2.79,9.13-4.21,14.8-4.13,16.56-3.54,19.43-5.62,23.81-.32.68-1.13,2.28-1.21,4.49-.08,2.06.54,2.71,1.29,5.93.79,3.42,1.19,5.13.72,7.27-.1.46-.14.47-2.28,5.36-1.07,2.46-1.61,3.69-1.71,4.02-.92,3.22.11,3.88-.8,6.77-.13.41-.83,1.76-2.24,4.45-1.54,2.95-1.79,3.27-2.24,4.45-.38,1-.28.98-1.21,4.49-.93,3.5-1.28,4.45-2.28,5.36-.5.46-1.42,1.29-2.62,1.27-1.87-.03-3.37-2.14-3.94-3.75-.22-.63-.71-2.33,1.37-8.11,1.52-4.23,2.44-5.13,1.82-6.73-.67-1.71-2.59-2.92-4.47-3.32-2.87-.6-5.1.8-5.69,1.17-2.26,1.43-2.97,3.5-3.26,4.42-1.63,5.1,1.99,10.71,4.36,11.72.17.07.81.32,1.25.91.58.77.78,2.05.06,2.64-.56.46-1.02.08-1.85-.04-.18-.03-1.37.09-2.22-.37-.03-.02-.14-.1-.29-.21-.58-.44-1.81-1.42-2.11-1.67l-.54-.77-1.09-1.53-1.09-1.53-.93-2.16-.22-2.01-.22-2.01"/><path class="cls-6" d="M6.36,297.63c.3,1.38.78,2.99,1.15,4.17.38,1.19,1.13,2.4,2.56,4.46.3.43,1.66,2.34,4.13,4.12,1,.72,2.81,1.64,3.37,1.34.62-.34.81-1.08.48-1.87l-2.66-1.19-2.4-2.4-1.96-3.74-.77-2.78-.22-2.01"/><path class="cls-6" d="M9.43,297.23c.3,1.38.78,2.99,1.15,4.17.38,1.19,1.13,2.4,2.56,4.46.3.43,1.66,2.34,4.13,4.12,1,.72,2.81,1.64,3.37,1.34.62-.34.81-1.08.48-1.87l-2.66-1.19-2.4-2.4-1.96-3.74-.77-2.78-.22-2.01"/><path class="cls-6" d="M184.59,501.26c-6.21-4.31,1.69-14.5,0-32.64-1.42-15.25-2.62-16.04-2.9-30.08-.27-13.45.42-12.84,1.46-28.8,1.06-16.33-4.61-21.71.72-30.08,4.65-7.29,14.92-12.56,19.54-10.24,5.26,2.64.67,13.16,0,34.56-.73,23.04,3.62,16,3.62,32,0,17.24-4.34,8.32-6.51,39.04-.93,13.17,2.93,21.48-2.9,25.6-3.46,2.45-9.58,3.03-13.03.64Z"/><path class="cls-6" d="M84.09,359.81c-4.43,15.73-7.83,28.92-7.21,37.74,1.26,17.95-6.25,23.66-5.25,32.67,1,9.01,7.68,18.53,7.06,38.41-.48,15.12-1.74,26.92,3.15,31.45,2.94,2.73,7.49,2.25,10.36-.63,4.44-4.44,4.26-13.95,4.05-24.53-.65-33.77-.97-50.68-.9-52.21.89-20.44,4.15-26.63,2.7-46.55-.54-7.46-1.5-13.54-2.25-17.61"/><path class="cls-2" d="M38.32,514.7c5.97-3.86,9.13-4.25,17.38-10.88,8.76-7.04,9.62-11.21,14.48-11.52,5.81-.37,6.63,2.74,14.48,3.2,9.17.53,12.11-3.48,15.93-1.92,9.28,3.78,5.5,27.15,3.62,27.52-13.03,2.56-3.61-5-10.86-10.24-.31-.22-3.26-4.46-8.69-3.2-4.85,1.13-4.73,4.93-10.14,8.96-5.8,4.32-12.74,5.01-20.27,5.76-4.31.43-2.51-.2-16.65,0-6.81.1-9.82.28-10.14-.64-.42-1.23,4.53-2.94,10.86-7.04Z"/><path class="cls-2" d="M239.21,517.18c-5.97-3.86-9.13-4.25-17.38-10.88-8.76-7.04-9.62-11.21-14.48-11.52-5.81-.37-6.63,2.74-14.48,3.2-9.17.53-12.11-3.48-15.93-1.92-9.28,3.78-5.5,27.15-3.62,27.52,13.03,2.56,3.61-5,10.86-10.24.31-.22,3.26-4.46,8.69-3.2,4.85,1.13,4.73,4.93,10.14,8.96,5.8,4.32,12.74,5.01,20.27,5.76,4.31.43,2.51-.2,16.65,0,6.81.1,9.82.28,10.14-.64.42-1.23-4.53-2.94-10.86-7.04Z"/><path class="cls-12" d="M249.03,183.22c-3.08-9.17-6.36-16.46-9.41-23.04-6.81-14.69-7.01-14.04-10.14-21.12-6.02-13.64-5.84-17.33-13.65-36.84-.67-.63-1-1.52-.97-2.4-4.71-11.54-7.47-16.28-11.96-18.82-.99-.42-1.99-.81-3.01-1.11-.71-.21-1.41-.44-2.09-.67-3.24-.52-7.14-.2-13.21.33-19.87,1.75-21.43,6.19-33.31,5.76-12.02-.43-12.35-5.05-26.07-5.12-9.32-.05-16.88,2.03-21,3.2-4.95,1.4-10.13,3.73-20.27,8.32-10.78,4.88-16.18,7.32-17.38,8.32-7.24,6.01-6.65,12.65-10.86,30.72-1.55,6.64-.19-.44-8.69,29.44-9.17,32.21-7.66,29.59-10.14,35.84-5.76,14.52-11.98,23.84-8.69,26.24,2.36,1.73,6.34-2.54,13.76-1.92,10.61.89,13.81,10.6,18.83,9.6,4.74-.94,5.18-10.25,9.41-33.92,3.26-18.24,5.15-24.74,5.79-26.88,4-13.38,10.45-27.94,12.31-27.52,1.78.41-1.39,14.37-6.52,42.88-.86,4.8-1.6,9-2.24,12.73-.18,1.38-.43,2.74-.7,4.11-.42,2.48-.78,4.73-1.11,6.78-.32,2.89-.5,5.8-.9,8.68-.08.6-.32,1.11-.64,1.53-.02.22-.06.43-.11.62-1.33,9.11-1.98,14.45-4.43,26.98-1.52,7.8-6.58,32.94-16.02,65.42.14.47.16.98.02,1.55-.52,2.12-1.37,4.14-2.29,6.12-.18.59-.36,1.18-.54,1.78-11.9,39.1-22.91,64.2-7.96,78.71,1.56,1.51,2.86,2.39,4.48,3.48,24,16.13,55.74,4.94,100.51.36,56.18-5.74,78.86,4.45,89.06-9.6,6.37-8.77,1.93-18.8-2.17-34.56-7.51-28.88-1.7-30.23-5.07-93.43-.19-3.58-.44-7.31-.74-11.18-1.64-4.7-1.54-9.6-1.29-14.49-2.23-22.38-5.92-49.66-11-84.39-.66-4.51,5.07,10.24,5.07,10.24l2.17,12.16,2.9,10.88,3.62,17.92c10.82,4.22,18.65-1.2,19.55-1.92,3.41-2.72,1.36-9.1-2.9-21.76Z"/><path class="cls-12" d="M108.56,133.94c1.13,36.04,6.09,41.01,8.69,41.68,3.66.93,11.3,1.09,13.76-2.78,7.82-12.29,4.49-33.13,4.34-38.9"/><path class="cls-12" d="M168.63,132.91c-.89,6.28-5.17,19.84,1.47,31.75,1.8,3.23,7.66,8.73,11.64,8.95,6.17.34,11.62-10.93,13.11-19.65,1.97-11.46-2.48-20.94-3.99-23.86"/><path class="cls-4" d="M63.52,313.67c-2.93-.16-5.71.04-8.26.52-1.23,3.97-3.43,7.6-4.97,11.49-.44,1.12-.81,2.26-1.15,3.4.02.34-.01.67-.11,1-.42,1.3-.56,2.22-.6,3.5,5.47,1.47,13.12-.66,20.12-6.11l-5.02-13.79Z"/><path class="cls-4" d="M62.81,313.93c-5.79-10.86-3.49-22.31,2.27-26.68,4.44-3.37,10.75-2.4,14.24-.48,6.63,3.65,8.28,13.63,3.55,25.06"/><path class="cls-4" d="M86.07,333.85c.21,13.52-6.36,24.46-12.83,26.71-4.98,1.73-9.69-1.75-11.72-5.12-3.86-6.4-1.09-17.37,7.45-27.33"/><path class="cls-4" d="M90.28,322.57c11.58-2.75,19.73-9.9,20.49-15.12.58-4.02-3.25-6.71-6.5-7.48-6.16-1.45-14.82,2.85-21.78,11.23"/><path class="cls-4" d="M90.29,322.41c10.38-8.07,25.23,2.8,25.94,6.1.55,2.54,1.13,3.29-1.77,6.71-5.5,6.51-23.06.09-29.34-.17"/><path class="cls-7" d="M91.18,322.88c0,5.05-.21,10.69-5.79,12-6.08,1.43-19.26-8.02-21.72-15.36-2.64-7.85,6.42-10.34,15.93-8.96,5.7.83,11.59,7.27,11.59,12.32Z"/><path class="cls-4" d="M229.7,238.51c-.08-.35-.15-.71-.21-1.06-3.85.27-8.33,2.07-12.52,5.32l4.11,11.22c3.43.19,6.6-.24,9.32-1.05-1.24-4.7-.95-9.58-.7-14.42Z"/><path class="cls-4" d="M221.67,253.77c4.74,8.83,2.86,18.15-1.86,21.71-3.63,2.74-8.8,1.96-11.66.39-5.43-2.97-6.78-11.09-2.9-20.39"/><path class="cls-4" d="M202.63,237.56c-.17-11,5.21-19.9,10.5-21.73,4.08-1.41,7.93,1.43,9.6,4.17,3.16,5.2.89,14.13-6.1,22.23"/><path class="cls-4" d="M199.19,246.74c-9.48,2.24-16.15,8.06-16.77,12.3-.47,3.27,2.66,5.46,5.32,6.08,5.04,1.18,12.13-2.32,17.83-9.14"/><path class="cls-4" d="M199.18,246.87c-8.5,6.57-20.65-2.28-21.23-4.97-.45-2.07-.93-2.68,1.44-5.46,4.5-5.29,18.87-.07,24.01.14"/><path class="cls-7" d="M198.45,246.49c0-4.11.17-8.69,4.74-9.76,4.97-1.16,15.76,6.53,17.78,12.49,2.16,6.39-5.25,8.41-13.04,7.29-4.67-.67-9.48-5.91-9.48-10.02Z"/><path class="cls-4" d="M211.95,372.57c6.61-.52,11.91,3.47,12.97,7.65.81,3.21-.92,6.4-2.58,7.83-3.15,2.71-8.5,1.2-13.31-4.11"/><path class="cls-4" d="M212.37,372.79c3.37-8.95,2.03-18.39-1.32-22-2.58-2.78-6.26-1.98-8.29-.4-3.86,3.01-4.82,11.24-2.07,20.66"/><path class="cls-4" d="M208.78,384.48l-9.96,4.73c-.07,6.78,1.85,10.08,4.22,12.05.08,0,.15.01.23.02.15-.01.3-.02.46-.02.49,0,.92.07,1.3.2.26-.05.53-.09.84-.09.09,0,.18,0,.27.01.46-.2,1-.33,1.63-.33.72,0,1.32.16,1.82.42.03,0,.05,0,.08,0,.48,0,.91.07,1.29.19.26-.05.54-.09.85-.09.34,0,.66.04.95.1.29-.06.61-.1.95-.1,0,0,.02,0,.03,0,.51-.66.95-1.37,1.25-2.07,2.25-5.27-1.24-6.82-6.21-15.03Z"/><path class="cls-4" d="M196.38,379.91c-6.74-2.27-11.49-8.17-11.93-12.47-.34-3.31,1.89-5.53,3.78-6.16,3.59-1.2,8.63,2.35,12.68,9.26"/><path class="cls-4" d="M196.37,379.78c-6.04-6.66-14.69,2.31-15.1,5.03-.32,2.1-.66,2.71,1.03,5.54,3.2,5.36,13.42.07,17.08-.14"/><path class="cls-7" d="M195.86,380.17c0,4.16.12,8.81,3.37,9.89,3.54,1.18,11.21-6.61,12.64-12.66,1.53-6.47-3.73-8.52-9.27-7.39-3.32.68-6.74,5.99-6.74,10.15Z"/><path class="cls-4" d="M103.98,208.11c11.37.47,20.5-3.13,22.32-6.88,1.4-2.89-1.59-5.76-4.44-7.04-5.42-2.44-14.62-1.08-22.9,3.69"/><path class="cls-4" d="M104.7,207.91c5.8,8.06,3.5,16.55-2.28,19.79-4.45,2.5-10.77,1.78-14.26.36-6.64-2.71-8.29-10.11-3.55-18.59"/><path class="cls-4" d="M81.4,193.13c-.21-10.03,6.37-18.14,12.85-19.82,4.99-1.29,9.71,1.3,11.74,3.8,3.87,4.74,1.09,12.89-7.47,20.27"/><path class="cls-4" d="M78.52,202.95c-.12.64-.24,1.27-.35,1.91-.6,3.49-.76,7.03-1.17,10.54,2.75-1.39,5.48-3.23,7.99-5.47l-6.47-6.99Z"/><path class="cls-4" d="M56.05,130.62c-.98,4.94-2.79,9.92-4.53,14.69,8.55-1.41,14.64-4.71,15.77-7.73,1.08-2.87-2.38-5.35-5.5-6.34-1.68-.53-3.63-.74-5.74-.66,0,.01,0,.03,0,.04Z"/><path class="cls-4" d="M79.78,194.53c-.05.97-.15,1.93-.28,2.88l2.85-5.16c-.62-.02-1.35-.09-2.17-.18-.02.81-.1,1.63-.37,2.4,0,.02-.02.04-.03.07Z"/><path class="cls-4" d="M51.46,145.49c-1.39,3.79-2.37,7.68-3.55,11.52,7.09,2.03,15.5,4.07,19.56,1.45,3.3-2.13,2.81-2.75,2.59-4.69-.23-2.03-8.99-8.91-18.3-9.08-.1.27-.2.54-.29.8Z"/><path class="cls-7" d="M103.84,203.77c-2.47-5.44-15.67-12.45-21.76-11.39-.75.13-1.39.32-1.96.56-.05.52-.14,1.03-.31,1.53,0,.02-.02.04-.03.07-.18,3.51-1.02,6.87-1.61,10.34-.02.13-.04.26-.06.39,2.18,2.54,6.02,4.75,9.78,5.16,9.53,1.02,18.6-.82,15.95-6.65Z"/><path class="cls-4" d="M192.72,85.19c-5.84-.42-10.53,2.81-11.46,6.18-.72,2.6.82,5.17,2.28,6.32,2.79,2.19,7.51.97,11.76-3.32"/><path class="cls-4" d="M199.88,79.89c-1.09-.33-2.13-.68-3.16-1.05-2-.03-4-.07-6-.1.2,2.15.72,4.41,1.63,6.63l10.32-1.4c.3-.93.53-1.85.73-2.74-1.16-.5-2.32-.97-3.53-1.34Z"/><path class="cls-4" d="M204.32,98.63c.11,9-3.27,16.29-6.6,17.79-2.56,1.16-4.99-1.17-6.03-3.41-1.99-4.26-.56-11.57,3.83-18.2"/><path class="cls-4" d="M207.02,82.85c-1.02-.45-2.03-.93-3.05-1.38-.51.65-1.01,1.33-1.49,2.08l4.01,7.57c1.51-.46,2.89-1.12,4.14-1.89-.83-1.8-1.76-3.55-3.04-5.2-.31-.4-.49-.8-.57-1.18Z"/><path class="cls-4" d="M214.9,99.56c-.12-.56-.28-1.1-.46-1.64-.23-.36-.38-.76-.44-1.18-.6-1.46-1.33-2.88-1.96-4.34-.48-1.12-.95-2.22-1.46-3.31-1.4.09-2.8.64-4.08,1.92l-2.66,8.42c2.3.13,7.54,2.31,11.39,1.99-.3-.58-.4-1.23-.33-1.87Z"/><path class="cls-7" d="M206.95,91.32c0,3.36-.11,7.12-2.98,7.99-3.13.95-9.91-5.34-11.17-10.23-1.36-5.23,3.3-6.89,8.19-5.97,2.93.55,5.96,4.84,5.96,8.2Z"/><path class="cls-12" d="M181.13,78.12c.64,1.17,8.71,0,8.1,4.78-.93,7.26-7.3,12.91-8.36,15.94-.67,1.91-1.97,3.84-4.59,7.7-2.53,3.73-3.59,4.62-5.01,5.17-2.75,1.05-5.4.24-5.84.1-2.25-.72-3.32-2.39-5.23-5.15-1.07-1.54-1.75-2.98-2.06-3.62,0,0-.76-1.6-1.24-3.07-1.22-3.77,2.01-19.56,13.26-21.74,4.63-.9,9.26-3.2,10.96-.11Z"/><path class="cls-12" d="M156.91,99.97c.35,1.36.27,2.84.27,2.84-.09,1.73-.63,3.13-1.28,4.41-2,3.96-3.91,7.73-7.97,9.43-3.17,1.33-6.22.79-10.24.02-9.13-1.75-15.32-6-18.96-8.56-1.77-1.24-7.46-5.38-12.21-12.01-.18-.26-3.08-4.39-3.81-9.86-.22-1.66-.19-3.09.81-3.98,1.37-1.22,3.86-.83,5.02-.64,23.81,3.93,39.86,11.06,39.86,11.06,1.07.48,7.53,3.42,8.52,7.31Z"/><path class="cls-6" d="M97.99,79.08c1.15,1.52,2.44,2.48,12.2,7.49,8.74,4.48,13.12,6.72,16.71,8.21,5.38,2.21,10.28,3.64,20.09,6.48,1.67.48,3.51,1,6.04,1.17.87.06,6.43.35,12.08-2.19,5.88-2.65,8.59-6.92,13.07-13.96,2.13-3.34,4.12-6.47,5.5-11.05.44-1.45,1.81-6.31.99-16.29-.59-7.17-1.19-14.47-5.28-23.25-2.84-6.1-5.78-12.42-13.15-17.71-2.36-1.7-11.82-8.49-23.88-7.29-8.7.87-14.05,5.45-21.48,11.8-2.27,1.94-18.83,16.51-24.18,39.95-2.15,9.42-.98,13.7,1.27,16.65Z"/><path class="cls-1" d="M88.36,34.39c-2.91-1.32-4.59-4.09-5.23-5.15-3.18-5.24-1.7-10.54-1.26-12.12,2.04-7.31,8.42-11.16,10.42-12.33,1.16-.68,8.45-4.8,17.71-3.56,2.81.38,7.79,1.04,10.25,4.51,1.85,2.61,1.39,5.56,1.14,6.97-2.18,12.53-23.11,26.2-33.02,21.69Z"/><path class="cls-1" d="M96.23,73.47l.72-.09,2.05-.91c3.38-1.78,6.37-3.23,8.8-4.36,4.76-2.21,6.25-2.66,8.08-4.27,2.52-2.2,3.44-4.6,4.59-7.7,2.1-5.67.78-6.96,2.83-13.94.99-3.37,1.7-5.7,3.77-8.24.69-.85,1.11-1.21,6.44-5.35,6.59-5.12,8.1-6.25,8.89-8.25,1.3-3.31,1.42-4.71,1.42-4.71.06-.72.1-1.96.4-1.99.21-.02.35.55,1.49,1.68,0,0,.02.02.04.04.68.67,1.94,1.69,2.78,2.25,2.39,1.58,5.54,2.52,5.54,2.52,6.54,1.95,9.01.45,13.52,2.15,5.16,1.94,7.76,6.11,8.52,7.31,2.08,3.32,2.62,6.83,3.1,9.95.48,3.11.16,3.96,1.04,6.33.75,2.03,1.55,2.98,1.55,4.97,0,1.91-.75,2.52-.2,3.26.99,1.33,4.81,1.26,7.27-.28,1.83-1.14,2.33-2.98,2.86-4.89.93-3.38.46-6.18.29-7.15-1.58-8.83-6.11-16.63-6.49-17.27-2.91-4.92-5.01-8.48-9.35-12.38-3.07-2.76-8.07-7.26-16.1-8.93-5.46-1.14-10.41-.57-13.21-.25-3.52.4-6.42,1.12-8.5,1.73,0,0-2.8-.25-2.97-.27-8.24-.73-15.76,2.02-15.76,2.02-1.38.5-3.33,1.33-8.69,4.99-8.66,5.91-14.37,9.81-19.93,16.78-3.85,4.83-5.93,9-6.94,11.23-2.44,5.41-4.41,9.81-3.34,15.3.85,4.38,3.28,7.59,5.35,10.31,2.93,3.86,5.69,5.98,6.98,6.87.53.36.99.65,1.11.72.14.09.73.38,1.54.76l.53.05Z"/><line class="cls-9" x1="131.71" y1="57.64" x2="121.23" y2="54.91"/><path class="cls-10" d="M140.86,82.91c.29.82,1.71,4.44,5.99,6.45,2.84,1.33,5.53,1.3,6.73,1.21l8.71-.29c1.12-.17,3.6-.68,5.85-2.56,3.39-2.83,3.74-6.63,3.79-7.49l-13.74,1.46-17.34,1.21Z"/><path class="cls-3" d="M170.63,50.08c-2.54-1.48-6.76.29-7.01,2.04-.21,1.41,2.15,2.93,4.12,3.43.46.12,3.1.78,4.31-.46,1.23-1.27.41-3.94-1.42-5.01Z"/><path class="cls-3" d="M141.62,51.25c-2.37-.39-5.35.89-5.49,2.52-.11,1.28,1.58,2.27,1.79,2.39,2.05,1.19,5.26.88,6.47-.69.09-.12.72-.97.46-1.98-.45-1.74-3.1-2.21-3.22-2.23Z"/><path class="cls-5" d="M169.4,51.79c-.77-.54-2.01.06-2.07.68-.05.5.66,1.06,1.25,1.24.14.04.93.3,1.28-.14.36-.44.09-1.4-.46-1.79Z"/><path class="cls-5" d="M140.37,55.07c.77.54,2.01-.06,2.07-.68.05-.5-.66-1.06-1.25-1.24-.14-.04-.93-.3-1.28.14-.36.44-.09,1.4.46,1.79Z"/><path class="cls-11" d="M158.11,59.8c1.23.94,3.42,2.9,4.47,5.97.52,1.51,1.33,3.89-.02,5.16-1.32,1.23-4.4,1.11-7.36-.5"/><path class="cls-9" d="M132.04,56.37c2.68-6.8,21.38-6.48,23.49-.9.22.57.25,1.18.16,1.8-.35,2.34-2.53,4.84-3.87,6.02-6.1,5.35-17.16,3.04-19.57-2.54-.25-.59-.96-2.49-.21-4.38Z"/><path class="cls-9" d="M184.72,54.35c-3.34-6.57-21.93-4.83-23.49.9-.76,2.79,2.62,6.15,4.46,7.5,6.6,4.87,17.39,1.71,19.25-4.02.2-.61.71-2.55-.21-4.38Z"/><polyline class="cls-9" points="155.57 55.22 157.52 54.31 159.14 54.24 161.07 55"/></svg>