<?xml version="1.0" encoding="UTF-8"?><svg id="Lag_1" xmlns="http://www.w3.org/2000/svg" width="514.79" height="524.15" viewBox="0 0 514.79 524.15"><defs><style>.cls-1{fill:#432108;stroke:#61380e;}.cls-1,.cls-2,.cls-3,.cls-4,.cls-5,.cls-6,.cls-7,.cls-8,.cls-9{stroke-miterlimit:10;stroke-width:2px;}.cls-2{fill:#4d4d4d;stroke:#1a1a1a;}.cls-3{fill:#fff;}.cls-3,.cls-5{stroke:#000;}.cls-4{fill:#dabcff;}.cls-4,.cls-7,.cls-8{stroke:#e1d2ff;}.cls-5{fill:#000;}.cls-6{fill:#8c6235;}.cls-6,.cls-9{stroke:#432108;}.cls-7{fill:#f2ffc6;}.cls-8{fill:#fae7ff;}.cls-9{fill:#764c20;}</style></defs><path class="cls-9" d="M416.03,161.36c.89,3.43,5.67.11,6-.12,7.82-5.4,22.11-4,31.95-3.04,14.59,1.43,25.45,13.03,28.33,16.26,6.85,7.68,14.31,16.05,19.71,35.67,5.19,18.83,5.69,37.9,5.95,47.96.24,9.2.62,26.72-3.09,45.74-1.06,5.46-3.38,17.01-8.47,26.61-.41.78-4.44,8.25-9.76,12.21-1.81,1.35-4.22,2.62-4.38,2.71-.56.29-2.96,1.54-5.52,2.29-1.29.38-9.32,2.61-17.04-2.07-1.28-.77-2.64-1.59-4.38-3.39-2.03-2.09-2.32-3.18-4.38-5.17-1.88-1.82-3.43-2.65-4.48-3.19-.97-.5-2.47-1.18-4.35-1.52-3.24-.59-3.94.47-6.3-.55-1.77-.76-2.99-2.04-3.44-2.46-2.48-2.34-9.14-4.91-26.14-6.69"/><path class="cls-9" d="M500.79,317.54c3.87,2.9,1.52,19.18,2.73,44.66,1.3,27.43,3.77,18.86,5.02,37.89,1.35,20.51-2.38,10.09-1.48,46.73.38,15.7,3.72,25.41-.01,30.58-2.22,3.07-6.44,4.04-9.03,1.36-4.66-4.84.04-17.32-2.55-38.82-2.18-18.07-3.08-18.95-4.38-35.64-1.24-15.99-9.08-41.41-9.61-60.43"/><path class="cls-9" d="M467.64,346.78c2.18,18.07.91,20.64,2.21,37.32,1.24,15.99.71,15.3,1.24,34.32.54,19.47-1.3,25.7-4.37,35.9-2.67,8.88-3.19,15.53-6.6,12.98-3.87-2.9-1.5-15.63-2.7-41.1-1.3-27.43-3.77-18.86-5.02-37.89-1.35-20.51.58-12.89-.31-49.52"/><path class="cls-9" d="M125.81,370.25c4.6,3.89-.25,14.13,2.08,31.62,1.96,14.71,2.85,15.42,3.94,29.01,1.04,13.02.53,12.46.82,27.97.3,15.87,4.6,20.82,1.41,29.18-2.77,7.28-9.59,12.86-12.96,10.82-3.83-2.32-1.31-12.72-2.2-33.48-.96-22.36-3.54-15.34-4.56-30.84-1.1-16.71,2.5-8.26,2.05-38.12-.19-12.8-3.41-20.67.39-24.94,2.26-2.53,6.48-3.37,9.04-1.22Z"/><path class="cls-9" d="M154.41,501.49c-4.6-3.89.25-14.13-2.08-31.62-1.96-14.71-2.85-15.42-3.94-29.01-1.04-13.02-.53-12.46-.82-27.97-.3-15.87,1.61-20.97,4.8-29.33,2.77-7.28,3.38-12.71,6.75-10.67,3.83,2.32,1.31,12.72,2.2,33.48.96,22.36,3.54,15.34,4.56,30.84,1.1,16.71-2.5,8.26-2.05,38.12.19,12.8,3.41,20.67-.39,24.94-2.26,2.53-6.48,3.37-9.04,1.22Z"/><path class="cls-1" d="M103.77,49.9c-3.19,2.86-15.95,1.21-15.95,1.21-1.4-.18-1.39-.07-33.28,4.34-10.31,1.43-21,1.15-31.05,3.57-3.31.8-8.16,2.13-12.2.32-3.87-1.72-5.02-5.44-6-8.6-1.45-4.68-.63-8.28.51-13.32,1.37-6.03,3.02-7.1,4.01-7.55,2.17-.99,4.98-.71,6.88.08,2.39.99,3.3,2.76,4.16,4.51,2.25,4.58,1.66,10.1,1.58,10.75-.19,1.59-.45,2.36.23,3,1.61,1.5,7.08.95,9.07-1.29,1.54-1.74-.11-3.28-.64-8.4-.4-3.87-.82-7.95,2.26-10.43,1.84-1.48,4.92-2.39,7.5-1.78,2.6.62,3.78,2.57,4.92,4.45,1.36,2.25,1.69,4.29,2.02,6.49.7,4.65-.23,5.96,1.31,7.14,2.21,1.7,6.48.78,6.93.68.89-.2,3.9-.7,4.42-2.15.31-.85-.42-1.53-.94-2.34-1.48-2.3-.73-4.77.79-9.72,1.12-3.66,1.68-5.49,3.34-6.29,2.34-1.13,5.67-.58,7.69.62.54.32,1.3.88,3.54,6.37,2.44,5.99,2.35,7.33,2.16,8.29-.35,1.76-1.12,2.55-.53,3.06,1.04.89,3.98-1.11,9.78-1.95,4.72-.68,4.93.32,8.36-.64,3.04-.85,4.36-2.07,6.74-1.72.37.05,2.24.36,3.18,1.57.8,1.04.01,1.58.32,4.2.22,1.87.71,2.41.27,3.6,0,0-.37,1.01-1.38,1.92Z"/><path class="cls-9" d="M34.15,149.02c-.24-.37-4.28.88-4.62,3.15-.2,1.34.97,2.51,1.33,2.87,2.32,2.33,6.01,2.27,8.28,2.09,6.68-.53,10.99-2.93,18.44-6.09,3.97-1.69,8.98-3.81,15.46-5.76,6.49-1.95,6.24-1.24,16.67-3.88,9.8-2.48,11.04-3.36,13.8-2.55,7.1,2.07,10.14,11.14,10.39,11.92,3.6,11.24-4.51,18.49-.2,25.18,2.83,4.39,8.83,5.14,12.7,5.62,15.52,1.93,31.62-7.55,30.8-12.51-.61-3.69-10.01-1.2-16.02-8.27-4.03-4.74-3.37-10.06-3.12-27.83.2-14.07.3-21.11-.13-28.16-1.38-22.26-5.39-21.26-3.67-32.8.77-5.17,3.49-18.29-.24-20.1-.63-.3-1.85-.49-3.2-1.65-.45-.39-1.88-1.71-2.43-3.75-.83-3.11,1.33-4.35,1.1-8.17-.04-.6-.19-2.81-1.55-4.86-1.37-2.06-3.13-2.72-8.62-5.07-7.33-3.14-6.75-3.06-7.4-3.2-6.55-1.36-12.24,1.65-13.8,2.55-2.05,1.18-4.09,3.44-8.17,7.96-2.91,3.22-3.82,4.68-4.3,6.52-.23.85-.1.78-.33,6.07-.22,5.07-.35,5.35-.21,7.07t.56,4.97q.33,2.98.33,2.98c.22,1.38.37,1.65.22,1.99-.66,1.52-5.63.72-5.96.67-8.12-1.29-22.21,1-31.91,2.57-14.39,2.33-24.4,8.4-27.05,10.07-6.29,3.98-13.14,8.31-17.21,17.02-3.91,8.36-3.14,16.26-2.74,20.43.37,3.81,1.15,11.06,6.09,18.44,1.42,2.12,4.48,6.59,10.17,9.93.46.27,4.95,2.86,10.49,3.86,1.89.34,4.36.57,4.53.59.57.05,3.04.28,5.63.28,1.31,0,9.42-.04,16.78-2.89,1.22-.47,2.51-.97,4.12-1.92,1.88-1.1,2.09-1.58,4-2.65,1.75-.97,3.23-1.5,4.24-1.85.93-.32,2.38-.78,4.22-1.14,3.18-.63,3.94-.28,6.22-.98,1.7-.52,2.83-1.19,3.25-1.42,2.31-1.26,8.75-3.11,25.5-5.87"/><path class="cls-1" d="M129.96,50.78c4.37,2.7,18.32-2.71,18.32-2.71,1.53-.59,1.55-.46,38.72-3.42,12.02-.96,23.99-4.13,35.99-3.79,3.95.11,9.78.47,13.85-2.82,3.89-3.16,4.18-8.05,4.43-12.22.37-6.17-1.54-10.41-4.2-16.34-3.19-7.1-5.34-7.99-6.58-8.28-2.72-.65-5.81.44-7.74,1.92-2.43,1.86-2.97,4.29-3.47,6.68-1.29,6.26.88,12.94,1.14,13.71.64,1.91,1.16,2.8.56,3.77-1.4,2.28-7.73,3.05-10.58.8-2.22-1.75-.76-4.08-1.56-10.56-.61-4.9-1.24-10.06-5.39-12.31-2.48-1.35-6.2-1.66-8.95-.22-2.76,1.45-3.56,4.18-4.34,6.81-.93,3.14-.74,5.75-.52,8.56.48,5.93,1.89,7.31.47,9.18-2.04,2.69-7.1,2.68-7.63,2.67-1.06-.01-4.58.16-5.57-1.49-.58-.97.05-2,.43-3.15,1.05-3.24-.48-6.1-3.53-11.81-2.26-4.23-3.39-6.35-5.48-6.9-2.95-.78-6.55.78-8.5,2.8-.52.54-1.23,1.43-2.26,8.82-1.12,8.05-.66,9.69-.18,10.82.88,2.08,1.96,2.86,1.43,3.64-.93,1.38-4.79-.32-11.56.17-5.51.4-5.48,1.7-9.6,1.42-3.66-.25-5.48-1.41-8.07-.35-.41.17-2.43,1.04-3.15,2.78-.62,1.5.41,1.96.78,5.28.26,2.37-.15,3.17.67,4.53,0,0,.69,1.15,2.08,2.01Z"/><path class="cls-8" d="M480.27,280.04c.59-3.29,1.05-6.6,1.39-9.97,0-.23.03-.46.03-.69,0-.43.06-.84.15-1.22,1.33-15.47.24-32.56-1.69-56.92-5.57-70.12-18.41-46.91-37.22-57.25-11.74-6.45-30.79-11-55.2-16.41-5.77-1.28-9.94-2.26-13.22-2.98-6.31-.4-12.6-.92-18.88-1.39-8.58.71-23.38,2.44-58.09,4.29-4.34.81-13.34-.81-18.03.18-5.47,2.78-5.58.74-11.59,1.22-19.92,2.83-35.12,7.69-45.14,11.5-25.48,9.69-46.2,23.5-56.09,15.63-3.24-2.58-2.24-5.04-6.07-7.51-6.28-4.05-14.25-.84-32.67,6.16-26.13,9.93-30.81,11.35-31.08,15.07-.46,6.28,12.56,6.85,17.21,17.91,1.44,3.42,1.48,6.43.77,9.58.25,16.67-1.66,33.28-1.77,49.95-.12,17.89.5,35.74-3.9,53.26-.1.39-.24.74-.4,1.07-.24,1.64-.54,3.18-.93,4.8-1.07,4.52-2.41,8.38-3.01,15.23-.67,7.67.1,13.25,1.51,22.95,2.07,14.25,3.53,15.28,4.83,27.74.8,7.65,1.19,11.47,1.05,15.97-.33,10.33-2.43,13.93.12,17.03,3.14,3.83,11,4.02,16.1.95,1.54-.93,5.82-3.96,7.93-16.56,1.96-11.69.24-20.75-.77-27.01-3.46-21.45-4.55-47.22-1.15-48.03,1.85-.44,5.13,6.49,6.71,10.58,5.33,13.78,1.21,20.73,2.69,40.91,1.15,15.63,3.95,15.92,2.7,25.88-1.4,11.21-5.61,16.12-2.68,20.22,3.71,5.19,15.88,5.03,21.02-.38,3.25-3.42,1.7-8.39-.38-21.02-5-30.33.58-21.91-3.35-50.89-.61-4.49-1.79-12.42,2.88-17.23,2.09-2.16,4.72-3.03,6.61-3.43.12-1.28,5.77-1.3,17.09-.76,6.04-.13,12.09.05,18.1.84.64.08,1.28.16,1.93.24,4.93.27,10.34.56,16.27.85,6,.3,11.25.53,15.91.72,1.71,0,3.41.1,5.12.2,3.1.12,5.9.21,8.46.29,3.31-.06,6.63-.27,9.94-.28,3.24-.24,6.49-.43,9.75-.45,4.76-.02,9.91.05,14.54,1.48,3.66.15,7.8.36,12.91.69,9.77.63,41.28,2.84,82.45,9.28.55-.25,1.18-.36,1.89-.28,2.68.31,5.27,1.03,7.85,1.85.75.13,1.49.32,2.26.38,37.49,2.59-18.87-.04,48.22-.94,12.21-.16,17.17-10.06,18.24-12.22,5.28-10.7,9.33-19.87,12.4-28.33,1.58-7.71,4.51-15.15,6.27-22.78Z"/><path class="cls-3" d="M77.3,60.79c2.88-3.05,9.19-1.7,10.16.87.79,2.08-1.84,5.15-4.3,6.52-.58.32-3.89,2.17-5.96.67-2.11-1.53-1.97-5.86.1-8.06Z"/><path class="cls-3" d="M94.41,60.89c3.04-1.35,7.51-.35,8.28,2.09.61,1.91-1.31,3.95-1.54,4.2-2.32,2.47-6.75,3.02-8.94,1-.16-.15-1.32-1.25-1.33-2.87-.02-2.79,3.38-4.35,3.53-4.42Z"/><path class="cls-5" d="M79.57,63.01c.84-1.07,2.72-.55,3.03.38.25.75-.51,1.82-1.24,2.29-.17.11-1.14.74-1.77.2-.64-.56-.62-2.1-.02-2.86Z"/><path class="cls-5" d="M97.46,66.3c-.84,1.07-2.72.55-3.03-.38-.25-.75.51-1.82,1.24-2.29.17-.11,1.14-.74,1.77-.2.64.56.62,2.1.02,2.86Z"/><path class="cls-6" d="M13.49,93.09c-2.73-.54-6.19,1.1-6.37,3.24-.14,1.67,1.8,2.98,2.03,3.14,2.35,1.58,6.07,1.21,7.48-.84.1-.15.84-1.26.55-2.59-.5-2.28-3.56-2.92-3.7-2.95Z"/><path class="cls-6" d="M26.85,102.63c-2.62,1.16-6.48.3-7.14-1.8-.52-1.65,1.13-3.4,1.33-3.62,2-2.13,5.82-2.6,7.71-.86.14.13,1.14,1.07,1.14,2.47.01,2.4-2.91,3.75-3.04,3.81Z"/><path class="cls-4" d="M311.65,133.3c-5.14.67-16.43,4.98-23.89,3.74,2.45,8.15,12.8,14.56,26.96,15.84l10.88-19.85c-.23-.28-.48-.53-.72-.8-4.4.16-8.81.49-13.24,1.07Z"/><path class="cls-4" d="M324.78,132.24c-.05.12-.1.24-.15.37l21.44,17.86c9.95-4.29,17.39-10.15,21.56-16.36-14.3-1.06-28.51-2.4-42.85-1.87Z"/><path class="cls-4" d="M324.11,177.34c-15.14,14.73-33.8,19.89-42.5,15.82-6.7-3.13-7.21-11.61-5.32-17.26,3.59-10.74,18.68-19.75,38.09-21.89"/><path class="cls-4" d="M340.92,169.44c14.12,8.66,29.98,9.15,36.61,4.3,5.11-3.73,4.53-10.47,2.31-14.55-4.2-7.74-17.31-11.81-33.43-9.78"/><path class="cls-4" d="M341.1,169.28c19.02,1.74,20.78,28.31,17.7,32.57-2.37,3.28-2.66,4.67-9.3,5.44-12.61,1.47-21.99-23.03-27.66-29.61"/><path class="cls-7" d="M341.41,170.68c-5.73,5.43-12.33,11.27-19.12,7.08-7.39-4.56-9.18-27.94-3.2-38.29,6.4-11.08,17.82-4.67,25.29,6.35,4.48,6.61,2.75,19.43-2.98,24.85Z"/><path class="cls-4" d="M205.86,329.33c3,.39,5.98.71,8.96.99.81-.72,1.61-1.47,2.41-2.26l-8.33-21.05c-15.72.04-27.78,8.43-29.76,16.49-.45,1.85-.37,3.65.08,5.35,8.88-.52,17.79-.67,26.64.48Z"/><path class="cls-4" d="M207.95,307.49c-9.09-16.41-7.1-34.46.4-41.81,5.77-5.66,14.57-4.72,19.58-2.04,9.51,5.09,12.81,20.5,7.46,38.75"/><path class="cls-4" d="M224.74,331.14l-6.85-2.1c-.32.49-.61.98-.92,1.47,2.59.23,5.18.43,7.78.63Z"/><path class="cls-4" d="M246.69,318.46c15.68-5.34,26.18-17.23,26.68-25.43.39-6.31-5.17-10.17-9.72-11.07-8.64-1.7-20.14,5.79-28.87,19.49"/><path class="cls-4" d="M250.32,332.35c7.65-.43,15.25-1.42,22.93-1.45,3.39-.01,6.97.02,10.42.55.65-2.17.05-3.53-.6-6.07-1.32-5.09-22.89-20.7-36.37-7.17l-4.15,14.37c2.59-.03,5.19-.09,7.78-.23Z"/><path class="cls-7" d="M221.99,330.93c3.87.3,7.75.57,11.66.86,2.67.2,5.32.48,7.96.81,1.8-.01,3.59-.05,5.38-.11,1.5-3.84,1.28-8.89.97-13.62-.52-7.88-9.28-17.38-17.23-18.16-13.25-1.29-25.47,3.41-21.03,15.41,1.86,5.03,6.74,10.52,12.29,14.81Z"/><path class="cls-4" d="M456.46,280.41c-7.55.07-13.38,3.76-14.35,7.28-.75,2.71,1.4,5.21,3.37,6.27,3.74,2,9.74.36,14.93-4.39"/><path class="cls-4" d="M456,280.62c-4.32-7.14-3.31-15.03.31-18.26,2.79-2.49,7.02-2.11,9.42-.95,4.56,2.2,6.1,8.91,3.47,16.9"/><path class="cls-4" d="M472.3,293.16c.74,9.19-3.12,16.92-7.31,18.74-3.22,1.4-6.5-.77-8-2.97-2.84-4.18-1.5-11.77,3.72-18.92"/><path class="cls-4" d="M479.47,283.2c1.22-4.53,2.14-9.1,2.21-13.82,0-.05,0-.1,0-.15-3.98,0-8.93,3.21-12.78,8.68l5.67,7.39c1.78-.56,3.41-1.28,4.89-2.1Z"/><path class="cls-4" d="M479.56,282.9c-1.75.23-3.46.92-4.97,2.3l-2.86,8.83c1.06-.02,2.62.19,4.41.45,1.14-3.86,2.39-7.7,3.42-11.57Z"/><path class="cls-7" d="M475.2,285.47c.23,3.44.34,7.28-3.3,8.42-3.96,1.24-13.12-4.62-15.08-9.51-2.1-5.23,3.79-7.32,10.16-6.79,3.82.31,8,4.44,8.23,7.88Z"/><path class="cls-4" d="M127.06,267.92l-14-.98c-.03,12.7-.22,25.34-2.63,37.84,5.11,3.89,11.57,2.1,15.09-.79,6.93-5.7,7.8-20.07,1.54-36.06Z"/><path class="cls-4" d="M113.48,243.99l15.02-7.77c-.91-16.96-7.36-30.7-13.87-35.68.78,14.51-.47,28.97-1.15,43.45Z"/><path class="cls-4" d="M134.18,252.04c12.97,3.09,22.58,12.73,23.9,20.13,1.01,5.7-2.94,9.83-6.42,11.15-6.62,2.52-16.53-3-24.96-14.48"/><path class="cls-4" d="M134.2,252.26c12.15,10.79,27.42-5.82,27.88-10.59.36-3.67.93-4.78-2.57-9.47-6.65-8.9-25.3,1.53-32.17,2.37"/><path class="cls-7" d="M127.65,234.8c-3.69-.87-9.38,3-14.13,8.42-.23,4.66-.4,9.32-.43,13.98-.03,4.44-.01,8.89-.04,13.32,3.11.63,6.81.4,10.53-.56,6.18-1.59,12.03-11.22,11.55-18.44-.47-7.22-1.23-15.25-7.48-16.73Z"/><path class="cls-2" d="M99.62,512.55c3.3-3.3,5.13-3.74,9.62-9.32,4.77-5.94,5.05-9.29,7.89-9.72,3.39-.52,4.03,1.93,8.66,1.99,5.4.07,6.91-3.23,9.24-2.14,5.64,2.65,4.64,21.38,3.56,21.75-7.51,2.54-2.38-3.84-6.9-7.73-.19-.17-2.15-3.42-5.26-2.21-2.78,1.09-2.51,4.11-5.47,7.52-3.17,3.66-7.21,4.47-11.58,5.36-2.51.51-1.48-.06-9.76.64-3.99.34-5.74.6-5.98-.12-.31-.97,2.5-2.52,6-6.02Z"/><path class="cls-2" d="M130.68,516.67c3.3-3.3,5.13-3.74,9.62-9.32,4.77-5.94,5.05-9.29,7.89-9.72,3.39-.52,4.03,1.93,8.66,1.99,5.4.07,6.91-3.23,9.24-2.14,5.64,2.65,4.64,21.38,3.56,21.75-7.51,2.54-2.38-3.84-6.9-7.73-.19-.17-2.15-3.42-5.26-2.21-2.78,1.09-2.51,4.11-5.47,7.52-3.17,3.66-7.21,4.47-11.58,5.36-2.51.51-1.48-.06-9.76.64-3.99.34-5.74.6-5.98-.12-.31-.97,2.5-2.52,6-6.02Z"/><path class="cls-2" d="M432.61,485.13c3.3-3.3,5.13-3.74,9.62-9.32,4.77-5.94,5.05-9.29,7.89-9.72,3.39-.52,4.03,1.93,8.66,1.99,5.4.07,6.91-3.23,9.24-2.14,5.64,2.65,4.64,21.38,3.56,21.75-7.51,2.54-2.38-3.84-6.9-7.73-.19-.17-2.15-3.42-5.26-2.21-2.78,1.09-2.51,4.11-5.47,7.52-3.17,3.66-7.21,4.47-11.58,5.36-2.51.51-1.48-.06-9.76.64-3.99.34-5.74.6-5.98-.12-.31-.97,2.5-2.52,6-6.02Z"/><path class="cls-2" d="M473.99,494.24c3.3-3.3,5.13-3.74,9.62-9.32,4.77-5.94,5.05-9.29,7.89-9.72,3.39-.52,4.03,1.93,8.66,1.99,5.4.07,6.91-3.23,9.24-2.14,5.64,2.65,4.64,21.38,3.56,21.75-7.51,2.54-2.38-3.84-6.9-7.73-.19-.17-2.15-3.42-5.26-2.21-2.78,1.09-2.51,4.11-5.47,7.52-3.17,3.66-7.21,4.47-11.58,5.36-2.51.51-1.48-.06-9.76.64-3.99.34-5.74.6-5.98-.12-.31-.97,2.5-2.52,6-6.02Z"/></svg>