<?xml version="1.0" encoding="UTF-8"?><svg id="Lag_1" xmlns="http://www.w3.org/2000/svg" width="463.04" height="758.52" viewBox="0 0 463.04 758.52"><defs><style>.cls-1{fill:#d9b37d;stroke:#c69c6a;}.cls-1,.cls-2,.cls-3,.cls-4,.cls-5,.cls-6,.cls-7,.cls-8,.cls-9,.cls-10,.cls-11{stroke-miterlimit:10;stroke-width:2px;}.cls-2{fill:#fff;}.cls-2,.cls-4,.cls-8,.cls-9,.cls-10{stroke:#000;}.cls-3,.cls-4{fill:none;}.cls-3,.cls-5,.cls-7{stroke:#1b0f66;}.cls-5,.cls-9{fill:#ffdba8;}.cls-6{stroke:#1a1a1a;}.cls-6,.cls-10{fill:#1a1a1a;}.cls-7{fill:#000040;}.cls-8{fill:#000;}.cls-11{fill:#f8ffcc;stroke:#a70000;}</style></defs><path class="cls-10" d="M176.1,410.23c4.85,9.76.04,13.55-3.48,49.45-3.99,40.67.94,48.33-1.16,102.61-1.66,42.74-4.56,33.99-4.64,61.82-.16,58.58,12.72,93.49-4.64,113.74-3.07,3.58-9.19,10.72-18.56,12.36-9.56,1.67-13.36-3.99-24.36-2.47-9.55,1.32-9.05,5.92-19.72,8.65-9.31,2.38-16.67.67-30.16-2.47-12.67-2.95-19.06-4.54-22.04-9.89-2.66-4.79-1.25-9.25,0-19.78.23-1.94.54-12.01,1.16-32.14.56-18.24-1.38-19.43-2.32-44.51-1.04-27.5,1.27-26.68,0-49.45-1.02-18.21-2.46-18.11-4.64-44.51-1.25-15.1-1.69-26.16-2.32-42.03-1.3-32.58.03-26.69-1.16-50.69-.48-9.6-1.29-22.75,0-40.8.46-6.41.69-9.61,1.16-11.13,9.11-29.29,116.97-38.82,136.86,1.24Z"/><path class="cls-10" d="M133.18,478.23c-3.81,4.86-8.73,12.48-11.6,23.06-3.32,12.22-1.99,21.36-1.16,37.47,0,0,.98,18.95,0,49-.93,28.63-3.72,27.78-4.64,54.77-.63,18.58.54,23.44,1.16,53.33.46,22.17.25,40.2,0,51.89"/><polyline class="cls-9" points="55.52 147.54 47.38 163.52 57.38 175.34 103.38 204.52 134.38 211.52 130.71 198.26"/><path class="cls-5" d="M369.38,176.52c.24,0,11.7-2.05,13-4,1.4-2.1,1.21-4.57,1-5-.15-.32-.63-2.24-3-4-1.13-.84-6.79-2.95-9-4l-6.37,3.23-.63,5.27v6.53l5,1.97Z"/><path class="cls-6" d="M344.38,168.52c.31-5.93.32-14.65,1-17,1.12-3.84,3.92,2.12,6,1,14.87-7.98,43.58-4.61,43,1-.14,1.31-1,9-1,12,0,3.77-.44,6.46-2,10-.31.72-.21.81-2,3-1.88,2.3-2.84,2.46-4,3-1.67.78-3.08,1.44-6,1-2.98-.45-6-.64-9-1-6.98-.83-13-1-13-1-4.31-.12-5.78.06-8-1-.73-.35-3.84-1.84-5-5-.6-1.65-.19-2.42,0-6ZM365.38,174.52c1.21,1,2.82,1.35,8,2,4.38.55,6.59.51,8,0,.82-.3,2.77-.04,4-2,1.65-3.3.73-6.28,1.13-10,.12-2.85-2.29-5.17-5.13-5-3,0-1,0-12,0-2.39,0-3.02.73-5,3-2.16,2.48-1.72,9.75,1,12Z"/><path class="cls-6" d="M394.49,153.3c9.67-.16,41.23-2.26,50.89-1.79.56.03,3.55.18,7-1,3.01-1.03,4.46-2.43,5-3,.37-.39,1.29-1.42,2-3,1.02-2.26,1-4.3,1-5,.02-8.93,3.73-18.68,0-21-1.73-1.08-3.27.56-6-1-2.18-1.25-2.62-3.11-4-3-1.23.1-1.53,1.65-3,3-2.1,1.94-4.96,1.95-7,2-5.06.12-43.34,1.41-96,3l-3,10c-.36,3.68-3.66,8.49-9,9v4.63l9,2.37c1.67,2.67,3.33,4.33,5,7"/><polygon class="cls-5" points="365.38 205.52 371.08 205.52 374.38 199.55 372.38 194.55 365.38 192.55 353.38 193.27 344.38 199.55 351.17 204.21 365.38 205.52"/><path class="cls-5" d="M359.38,193.52c2.59.05,5.94.04,8,0,2.63-.05,3.84-.13,5-1,1.28-.96,1.76-2.31,2-3,.22-.62,1.03-2.92,0-5-.75-1.51-2.1-2.14-4-3-3.87-1.74-7.5-1.96-9-2-3.67-.09-7,0-7,0-.83.02-3,0-5,0-.59,0-4-1-3-2l-2-8-30,7,11,29"/><path class="cls-5" d="M347.38,178.52l-9,3c-.14.56-4.35,2.68-4,4,.18.68.58,4.19,2,5,1.81,1.03,6.79,1.1,7,1"/><path class="cls-5" d="M337.38,197.52l-3.02,20.79-34.34,5.46-3.64-1.54-35-4.71-17.57-10.69,17.73-24.17,23.84-5.14c1.39.38,3.46.84,6,1,2.94.18,8.78.1,15-3,3.36-1.67,5.54-3.59,6-4,.91-.81,1.82-1.74,6-7,3.7-4.66,3.53-4.61,4-5,3.91-3.23,10.05-.53,14,1,2.62,1.02,2.16,1.41,5,4,2.81,2.55,5.63,5.26,6,8,.32,2.35.41,2.25,0,3-.29.53-2.88,5.27-6,6-1.71.4-1.14-.06-4-1-2.61-.85-5.32-3.42-7-5-1.76-1.66-2.59-3.62-3-5"/><polygon class="cls-7" points="149.54 288.56 165.94 282.91 140.38 191.52 107.38 214.52 149.54 288.56"/><path class="cls-5" d="M347.38,202.52c.86.34,8.25,1.79,10,2,1.61.19,2.63.07,5,0,1.16-.03,2.88-.06,5,0l2,6-4,5-7,6.71-22-1.71-1-15,12-3Z"/><path class="cls-5" d="M360.38,214.52c-.93.07-3.32.12-5,0-2.66-.19-4.99-.75-6-1-1.97-.48-3.02-.89-5-1-.84-.05-3.54-.03-4,0l-8.21,2.07,2.19,9.35,16.02,1.57,12-3-2-8Z"/><path class="cls-5" d="M374.38,222.52c1-3-.39,2.43-2,6-2.48,5.53-3.73,8.29-6,11-1.5,1.78-4.38,5.21-9,7-3.17,1.23-5.08.87-15,0-9.61-.84-14.48-1.26-18-1-3,.22-8.12.64-14,3-6.43,2.58-10.33,6.09-18,13-4.78,4.31-8.22,8.02-10,10-1.44,1.6-6.57,7.4-13,17-7.03,10.51-7.14,12.92-13,21-4.23,5.83-11.24,11.2-14,14l-27-48c3.67-1.79,14.9-3.46,21-7,7.46-4.33,12.53-7.83,20-13,21.79-15.09,24.23-18.93,31-22,1.04-.47,3.56-1.55,6-4,2.27-2.28,2.33-3.61,5-8,2.83-4.66,4.25-6.99,7-9,.59-.43.64-.41,8-4,3.7-1.8,5.56-2.71,6-3,4.35-2.83,4.01-4.54,8-7,.56-.35,2.71-1.23,7-3,4.69-1.94,5.28-2.06,7-3,1.45-.79,1.32-.86,6-4,4.66-3.13,6.02-3.9,8-4,1-.05,2.81-.15,4,1,1.86,1.8,1.13,5.62,0,8-.44.93-1.75,3.34-10,8-6.04,3.41-7.93,3.58-9,6-1.15,2.59-.49,5.78,1,8,2.27,3.39,6.01,3.87,7,4,3.34.43,5.88-.9,8-2,3.4-1.77,5.39-4.11,7-6,1.2-1.41,2.74-3.24,4-6,.13-.28.25-.57.36-.86,1.42-3.73,1.7-8.73,1.64-11.14h2l3-3,1-4-2-4-3-1h1l10,2c-1.2,5.94-1.21,10.73-1,14,.52,8.21,2.81,12.62,0,17-1,1.55-1.18.83-5,5-2.64,2.88-3.41,4.16-6,7-1.59,1.74-3.25,3.41-5,5"/><path class="cls-7" d="M155.38,230.52c4.53-2.82,9.87-3.4,12.15-3.21.78.06,1.87.24,5.66.63,3.7.38,1.35.08,4.49.39,1.13.11,2.64.26,4.65.05,0,0,.21-.02.42-.05,2.88-.37,5.85-1.62,7.1-2.03,3.3-1.08,6.46-.18,7.1,0,2.49.71,6.6,2.78,9.13,3.05.14.02.29.03.29.03,1.93.17,3.38,0,3.76-.03.44-.04.47-.02,11.16,0,5.19.01,7.79.02,8.12,0,4.64-.23,5.06-.68,10.15-1.02,4.4-.29,6.59-.43,9.13,0,4.08.69,8.12,2.03,8.12,2.03,2.98.99,3.95,1.59,5.07,1.02,1.45-.74,1.52-2.61,4.06-4.06.46-.26.83-.42.97-.47,2.74-1.09,4.4.23,9.18.47,1.73.09,3.07.04,3.07.04.96-.03,1.33-.09,2.3-.11,1.27-.03,2.21.04,2.74.07,4.62.3,6.93.45,8.12,0,2.84-1.09,4.61-4.33,4.06-5.08-.45-.61-2.1.91-5.07,1.02-2.02.07-4.76-1.31-10.15-4.06-4.29-2.19-3.73-2.22-4.92-2.58-.64-.19-2.22-.62-3.68-1.95,0,0-.28-.26-.54-.54-3.31-3.7-3.04-12.19-3.04-12.19.1-3.3.29-9.14,4.06-15.24,1.67-2.71,3.88-6.26,8.12-8.13,3.12-1.37,6.06-1.26,6.09-2.03.03-.77-2.91-.75-6.87-3-2.86-1.63-3.01-2.6-5-3-1-.2-1.85-.14-6,1-5.28,1.45-5.09,1.66-7,2-2.51.44-5.1.9-8,0-3.38-1.06-4.03-2.99-7-3-1.52,0-1.43.5-4,1-1.27.25-4.47.84-8,0-2.83-.68-3.07-1.61-6-2-1.23-.16-2.15-.11-4,0-3.78.22-4.77.74-8,1-1.06.08-.8.02-6,0-6.38-.02-6.1.08-8,0-5.35-.24-4.91-.95-9-1-5.32-.06-6.29,1.14-9,0-2.4-1.01-2.43-2.29-5-3-2.09-.58-3.09-.02-6,0-1.68.01-4.07-.15-7-1l-46,28"/><path class="cls-7" d="M134.38,194.52l-9,2c-.58,3.18-1.5,5.96-3,6-.01,0-.02,0-.03,0-.35,0-3.64.04-4.97,0-2.37-.06-4.62-.71-9-2-2.56-.75-5.33-1.57-9-3-2.84-1.1-4.9-2.07-9-4-4.18-1.97-6.27-2.95-8-4-.9-.55-4.18-2.58-8-6-3.03-2.71-2.61-2.91-6-6-3.42-3.12-4.07-3.13-7-6-2.49-2.44-3.8-3.74-5-6-.98-1.85-2.18-4.12-2-7,.2-3.12.06-4.37,1-6,1.33-2.32-1.99-3.17-4-2-2.42,1.41-3.71,1.6-4,2-1.85,2.59-1.16,4.29-3,8-1.32,2.67-3.16,4.28-4,5-3,2.58-4.92,2.27-8,4-3.4,1.91-3.58,3.69-8,9-4.71,5.66-5.72,5.09-10,10-5.66,6.49-8.44,12.72-9,14-2.78,6.37-3.26,11.47-4,20-.6,6.93-.41,13.38,0,26,.57,17.54,1.11,14.37,1,22-.1,6.89-.58,11.4,1,18,.58,2.42,1.14,3.9,2,8,1.24,5.88.99,7.17,2,11,.54,2.04.71,2.07,4,10,4.07,9.82,4.7,11.92,5,13,1.32,4.69.64,4.44,2,10,.65,2.68,1.08,3.85,5,15,3.23,9.21,3.53,10.09,4,12,1.11,4.53,1.56,8.27,2,12,.87,7.4.27,7.26,1,12,.61,3.95,1.04,4.13,4,15,1.92,7.04,2.88,10.61,3,13,.13,2.6.1,7.41,0,11-.1,3.8-.26,5.85,1,8,1,1.7,2.47,2.51,5,4,1.47.87,3.55,1.91,7,3,2.37.75,4.46,1.22,9,2,7.24,1.25,7.7,1.03,13,2,6.67,1.21,6.08,1.57,10,2,3.51.38,5.49.26,10,1,2.5.41,2.06.48,5,1,5.91,1.05,9.1,1.62,13,1,2.5-.4,2.69-.88,5-1,2.71-.15,4.29.41,7,1,5.98,1.31,8.98,1.96,12,1,3.21-1.02,2.93-2.61,7-4,1.02-.35,2-.58,7-1,9.01-.76,9-.28,11-1,4.12-1.48,3.29-3.19,8-5,3.94-1.51,6.03-.89,8-3,1.21-1.29,1.52-2.71,2-5,.81-3.89.21-5.74,0-12-.04-1.28-.03-3.85,0-9,.04-6.9.13-7.01,0-9-.3-4.47-.83-4.59-1-9-.11-2.77.1-2.63,0-7-.1-4.16-.29-4.48,0-6,.43-2.24,1.05-2.51,2-6,.79-2.9.45-3.01,1-4,1.08-1.94,2.91-2.4,7-4,3.65-1.43,6.23-2.44,9-4,1.21-.68,3.98-2.33,7-5,.85-.75.89-.85,5-5,2.84-2.87,4.27-4.31,5-5,.77-.73,3.36-3.14,7-6,1.08-.85,2.29-1.8,4-3,4.31-3.02,4.59-2.57,6-4,1.04-1.06,2.03-3.04,4-7,1.57-3.15,1.81-4.01,3-5,2-1.66,3.51-1.06,5-2,4.54-2.88,1.39-15.43,1-17-1.76-7.01-4.71-11.48-9-18-7-10.63-10.98-12.36-13-13-1.26-.4-4.74-1.51-8,0-2.29,1.06-2.48,2.49-5,5-2.71,2.69-5.36,3.89-10,6-6.61,3-7.16,1.76-10,4-3.94,3.11-3.72,6.14-7,7-2.42.63-5.32-.3-7-2-1.92-1.93-.89-3.45-3-7-.75-1.26-2.23-3.76-5-5-2.9-1.3-3.98.22-6-1-3.2-1.94-1.95-6.63-5-8-1.51-.68-2.09.35-4,0-1.01-.18-3.53-.96-8-10-3.4-6.87-3.16-8.89-6-11-2.74-2.04-4.07-.97-6-3-2.87-3-.56-5.97-3-11-1.62-3.33-2.87-2.52-7-8-1.48-1.96-2.65-3.97-5-8-2.09-3.58-3.77-6.67-5-9"/><path class="cls-7" d="M166.38,285.52c-.19-2.03-.49-4.77-1-8-.55-3.51-1-6.39-2-10-1.25-4.51-1.68-4.13-3-9-.92-3.41-.9-4.29-2-8-1.21-4.07-1.42-3.63-2-6-.93-3.8-.34-4.8-1-11-.35-3.28,0-3-1-7-1.14-4.55-4.44-4.48-5-9-.53-4.27-5.69-2.98-4-5"/><path class="cls-7" d="M45.38,274.52c1.29,1.76,3.37,4.56,6,8,2.58,3.38,3.27,4.19,7,9,6.29,8.1,5.83,7.72,7,9,1.37,1.5,2.01,2.04,10,9,6.74,5.87,7.61,6.64,9,8,3.81,3.74,3.46,4.1,8,9,5.83,6.29,6.75,6.16,12,12,4.79,5.33,4.19,5.64,7,8,2.28,1.91,5.42,3.9,12,7,1.74.82,4.75,2.4,10,5,7.58,3.76,8.49,1.83,11,5,2.63,3.31,5.69,1.73,10,6,1.48,1.46,3.44-.34,8,2,4.17,2.14,13.56,4.81,17,3"/><path class="cls-7" d="M259.38,219.52c-1.69-1.08-4.08-2.97-6-6-2.43-3.83-2.85-7.52-3-9-.24-2.35.2-1.95,0-6-.19-3.95-.64-4.96,0-7,.2-.62.16-.28,2-4,1.32-2.68,1.42-3.02,2-4,.59-1,1.54-2.43,3-4"/><path class="cls-7" d="M172.38,189.52c-2.4.86-3.47,2.06-4,3-.57,1.02-.27,1.3-1,3-.98,2.27-1.88,2.61-2,4-.06.65.05,1.67,1,3"/><path class="cls-7" d="M161.38,196.52c-.14-1.57-.08-3.78,1-6,.25-.52,1.17-1.69,3-4,1.63-2.07,3.24-4.06,4-5h0c1-.67,2-1.33,3-2"/><path class="cls-7" d="M203.46,291.94c2-.05,5.04.16,8.34,1.58,4.16,1.8,6.59,4.61,7.55,5.75,1.52,1.81.94,1.73,3.38,4.96,2.38,3.15,3.33,3.74,3.94,5.79.19.63.02.32.6,4.43.41,2.96.52,3.3.6,4.43.08,1.16.1,2.87-.23,4.99"/><line class="cls-4" x1="57.38" y1="148.52" x2="126.38" y2="196.52"/><path class="cls-5" d="M67.88,105.02c-.97-5.52.51-10.75,2-16,.97-3.42,2.12-6.01,3-8,1.41-3.18,2.19-4.32,4-8,2.25-4.59,3.38-6.88,4-9,.81-2.79,2.81-9.65,0-16-1.37-3.09-3.58-5.4-3-6,.5-.52,2.57.74,3,1,7.86,4.65,35.82,9.46,59,10,2.16.05,5.97.07,11,1,0,0,15.12,2.81,19.19,10.39.7,1.3.81,2.61.81,2.61.03.42.02.77,0,1,.01.1.03.23.05.4.12.96.23,1.69.28,1.98.06.39.13.77.19,1.16.09.57.23,1.43.48,2.46.96,4.07,2.31,5.73,3,8,.65,2.14.16,2.3,0,10-.13,6.08.19,5.62,0,10-.13,2.97-.42,5.64-1,11-.7,6.44-.83,6.33-1,9-.3,4.74.12,5.01,0,11-.13,6.49-.71,10.98-1,13-.53,3.68-.8,5.52-1.5,7.5-.62,1.75-1.68,3.67-6,10-.65.96-2.09,3.04-6,8-4.67,5.93-7.01,8.9-9,11-4.86,5.11-8.28,8.71-14,11-5.26,2.1-9.85,2.05-12,2-6.24-.14-11.25-2.43-21-7-6.16-2.89-11.44-5.37-18-10-6.05-4.27-10.2-8.28-13-11-2.87-2.79-6.25-6.1-10-11-4.04-5.27-6.06-7.91-7-10-.35-.79-.62-1.43-.86-1.97-.63-1.39-1.12-2.06-2.64-2.53-1.76-.54-3.1-.65-5.5-.5-3.14.2-5.57-1.95-9-5-2.08-1.85-4.5-3-6.5-7.5-1.03-2.33-1.85-5.72-2.5-9.5-.79-4.66-1.67-6.52-.5-8.5.99-1.67.85-2.28,3-5,.65-.82,1.26-1.41,1.83-1.85.51-.4,1.17-.77,1.76-1.12.44-.26.82-.47.92-.53,1.57-.85,5.13-1.24,9.04.31.25.1.41.17.46.19,3.64,1.42,5.92,3.83,7,5,2.49,2.7,2.05,3.62,4,5,2.07,1.47,5.74,2.67,9,1,2.15-1.1,3.5-3.13,4-5,.46-1.72.15-3.12,0-4Z"/><path class="cls-1" d="M173.88,44.02c-3.42-10.54-11.07-16.74-19-23-9.83-7.76-18.83-11.69-22-13-15.67-6.48-28.92-6.79-38-7-1.16-.03-6.78-.13-14,1-8.17,1.28-11.45,3.06-13,4-1.22.74-3.6,2.33-6,5-1.58,1.76-3.84,4.27-5,8-1.72,5.52.43,9.04-2,11-1.18.95-1.9.29-4,1-3.72,1.25-5.64,4.73-8,9-2.07,3.75-1.64,4.26-5,11-1.25,2.5-1.37,2.55-2,4-.38.86-2.01,4.66-3,10-.81,4.36-.9,8.19-1,12-.01.48-.02,1-.02,1-.04,2.43-.01,3.94,0,5.86.02,1.65.02,3.14.01,6.14,0,3.43-.02,3.38,0,4,.15,3.94.21,5.92,1,7,1.83,2.51,5.38.23,10,2,5.44,2.09,4.51,6.81,10,10,4.41,2.56,11.24,3.14,15,0,1.36-1.14,1.98-2.48,4-15,1.63-10.13,1.62-11.65,3-15,1.66-4.01,2.36-3.47,6-10,4.26-7.63,6.39-11.45,6-16-.48-5.62-4.19-8.58-3-10,1.41-1.69,7.49,1.44,11,3,14.8,6.59,17.72.51,44,6,1.13.24,21.63,4.55,26,7,.27.15,1.4.81,3,1,2.53.3,4.59-.77,5-1,3.5-2.01,3.5-11.29,1-19Z"/><path class="cls-5" d="M315.38,207.52c-.97.28-4.45-.47-6-1-.89-.31-.88-.55-3-2-2.38-1.62-3.13-1.82-4-3-.55-.76-.84-1.49-1-2"/><path class="cls-11" d="M110.38,145.49c.25,1.32,1.51,7.17,7,11,3.64,2.54,7.34,2.93,9,3l12,1c1.57-.07,5.06-.46,8.5-3,5.19-3.82,6.38-9.67,6.61-10.98l-19.11-.02-24-1Z"/><path class="cls-2" d="M157.38,99.52c-3.2-2.72-9.32-.67-10,2-.55,2.16,2.4,4.91,5,6,.61.26,4.11,1.72,6,0,1.93-1.76,1.3-6.04-1-8Z"/><path class="cls-2" d="M117.38,96.52c-3.17-1-7.5.49-8,3-.39,1.97,1.74,3.78,2,4,2.58,2.19,7.05,2.25,9,0,.14-.16,1.17-1.39,1-3-.29-2.77-3.84-3.95-4-4Z"/><path class="cls-8" d="M155.37,101.97c-.95-.97-2.77-.24-2.97.71-.16.77.71,1.75,1.48,2.14.18.09,1.22.61,1.78,0,.57-.63.39-2.15-.3-2.85Z"/><path class="cls-8" d="M114.95,102.23c.95.97,2.77.24,2.97-.71.16-.77-.71-1.75-1.48-2.14-.18-.09-1.22-.61-1.78,0-.57.63-.39,2.15.3,2.85Z"/><path class="cls-3" d="M138.38,112.52c1.51,1.67,4.14,5.06,5,10,.43,2.43,1.09,6.26-1,8-2.04,1.7-6.24,1-10-2"/></svg>